<mxfile host="app.diagrams.net" modified="2022-10-05T10:30:13.236Z" agent="5.0 (Windows NT 10.0; Win64; x64) AppleWebKit/537.36 (KHTML, like Gecko) Chrome/106.0.0.0 Safari/537.36" etag="SND9NBIV1jhlIo4-hSzG" version="20.4.0" type="github">
  <diagram name="Page-1" id="03018318-947c-dd8e-b7a3-06fadd420f32">
    <mxGraphModel dx="1422" dy="794" grid="1" gridSize="10" guides="1" tooltips="1" connect="1" arrows="1" fold="1" page="1" pageScale="1" pageWidth="1100" pageHeight="850" background="none" math="0" shadow="0">
      <root>
        <mxCell id="0" />
        <mxCell id="1" parent="0" />
        <mxCell id="ei4Z1CyDfGhYZdKIR3ee-4" value="" style="verticalLabelPosition=bottom;shadow=0;dashed=0;align=center;html=1;verticalAlign=top;strokeWidth=1;shape=mxgraph.mockup.graphics.simpleIcon;strokeColor=#999999;rounded=0;labelBackgroundColor=none;fontFamily=Verdana;fontSize=14;fontColor=#000000;comic=1;" parent="1" vertex="1">
          <mxGeometry x="40" y="130" width="1040" height="360" as="geometry" />
        </mxCell>
        <mxCell id="ei4Z1CyDfGhYZdKIR3ee-8" value="&lt;font style=&quot;font-size: 24px&quot;&gt;Изображение&lt;/font&gt;" style="text;html=1;strokeColor=none;fillColor=none;align=center;verticalAlign=middle;whiteSpace=wrap;rounded=0;" parent="1" vertex="1">
          <mxGeometry x="550" y="295" width="60" height="30" as="geometry" />
        </mxCell>
        <mxCell id="UNnWFAOXVXrqqHiCmMRa-1" value="Заоголовок" style="rounded=0;whiteSpace=wrap;html=1;dashed=1;fontSize=18;" parent="1" vertex="1">
          <mxGeometry x="40" y="40" width="1040" height="40" as="geometry" />
        </mxCell>
        <mxCell id="UNnWFAOXVXrqqHiCmMRa-2" value="Тематики" style="rounded=0;whiteSpace=wrap;html=1;dashed=1;fontSize=18;" parent="1" vertex="1">
          <mxGeometry x="40" y="90" width="360" height="30" as="geometry" />
        </mxCell>
        <mxCell id="2Ny76qvcX77MYoklXK3H-1" value="" style="rounded=0;whiteSpace=wrap;html=1;" vertex="1" parent="1">
          <mxGeometry x="840" y="520" width="240" height="280" as="geometry" />
        </mxCell>
        <mxCell id="2Ny76qvcX77MYoklXK3H-2" value="&lt;span style=&quot;font-size: 24px;&quot;&gt;&lt;font style=&quot;vertical-align: inherit;&quot;&gt;&lt;font style=&quot;vertical-align: inherit;&quot;&gt;Информация о посте&lt;/font&gt;&lt;/font&gt;&lt;/span&gt;" style="text;html=1;strokeColor=none;fillColor=none;align=center;verticalAlign=middle;whiteSpace=wrap;rounded=0;fontSize=12;" vertex="1" parent="1">
          <mxGeometry x="870" y="640" width="180" height="30" as="geometry" />
        </mxCell>
        <mxCell id="2Ny76qvcX77MYoklXK3H-3" value="" style="rounded=0;whiteSpace=wrap;html=1;" vertex="1" parent="1">
          <mxGeometry x="840" y="840" width="240" height="280" as="geometry" />
        </mxCell>
        <mxCell id="2Ny76qvcX77MYoklXK3H-4" value="&lt;span style=&quot;font-size: 24px;&quot;&gt;&lt;font style=&quot;vertical-align: inherit;&quot;&gt;&lt;font style=&quot;vertical-align: inherit;&quot;&gt;&lt;font style=&quot;vertical-align: inherit;&quot;&gt;&lt;font style=&quot;vertical-align: inherit;&quot;&gt;Ссылки&lt;/font&gt;&lt;/font&gt;&lt;/font&gt;&lt;/font&gt;&lt;/span&gt;" style="text;html=1;strokeColor=none;fillColor=none;align=center;verticalAlign=middle;whiteSpace=wrap;rounded=0;fontSize=12;" vertex="1" parent="1">
          <mxGeometry x="870" y="960" width="180" height="30" as="geometry" />
        </mxCell>
        <mxCell id="2Ny76qvcX77MYoklXK3H-5" value="" style="rounded=0;whiteSpace=wrap;html=1;" vertex="1" parent="1">
          <mxGeometry x="40" y="520" width="760" height="600" as="geometry" />
        </mxCell>
        <mxCell id="2Ny76qvcX77MYoklXK3H-6" value="&lt;font style=&quot;vertical-align: inherit;&quot;&gt;&lt;font style=&quot;vertical-align: inherit; font-size: 34px;&quot;&gt;Текст&lt;/font&gt;&lt;/font&gt;" style="text;html=1;strokeColor=none;fillColor=none;align=center;verticalAlign=middle;whiteSpace=wrap;rounded=0;" vertex="1" parent="1">
          <mxGeometry x="380" y="790" width="60" height="30" as="geometry" />
        </mxCell>
        <mxCell id="2Ny76qvcX77MYoklXK3H-7" value="" style="rounded=0;whiteSpace=wrap;html=1;fontSize=34;" vertex="1" parent="1">
          <mxGeometry x="40" y="1160" width="760" height="360" as="geometry" />
        </mxCell>
        <mxCell id="2Ny76qvcX77MYoklXK3H-8" value="Комментарии" style="text;html=1;strokeColor=none;fillColor=none;align=center;verticalAlign=middle;whiteSpace=wrap;rounded=0;fontSize=34;" vertex="1" parent="1">
          <mxGeometry x="410" y="1320" width="60" height="30" as="geometry" />
        </mxCell>
      </root>
    </mxGraphModel>
  </diagram>
</mxfile>
